PathFileType	4	(X/Y/Z)	 static.trc
DataRate	CameraRate	NumFrames	NumMarkers	Units	OrigDataRate	OrigDataStartFrame	OrigNumFrames
200	200	8	43	m	200	301	400
Frame#	Time	C7			LSH			RSH			MAN			RASI			LASI			HIPR			HIPL			RPSI			LPSI			COX			RTHI1			RTHI2			RTHI3			RTHI4			RLKN			RMKN			RSHA1			RSHA2			RSHA3			RSHA4			RLMAL			RMMAL			RHEEL			RMET5			RMET1			RTOE			LTHI1			LTHI2			LTHI3			LTHI4			LLKN			LMKN			LSHA1			LSHA2			LSHA3			LSHA4			LLMAL			LMMAL			LHEEL			LMET5			LMET1			LTOE			
		X1	Y1	Z1	X2	Y2	Z2	X3	Y3	Z3	X4	Y4	Z4	X5	Y5	Z5	X6	Y6	Z6	X7	Y7	Z7	X8	Y8	Z8	X9	Y9	Z9	X10	Y10	Z10	X11	Y11	Z11	X12	Y12	Z12	X13	Y13	Z13	X14	Y14	Z14	X15	Y15	Z15	X16	Y16	Z16	X17	Y17	Z17	X18	Y18	Z18	X19	Y19	Z19	X20	Y20	Z20	X21	Y21	Z21	X22	Y22	Z22	X23	Y23	Z23	X24	Y24	Z24	X25	Y25	Z25	X26	Y26	Z26	X27	Y27	Z27	X28	Y28	Z28	X29	Y29	Z29	X30	Y30	Z30	X31	Y31	Z31	X32	Y32	Z32	X33	Y33	Z33	X34	Y34	Z34	X35	Y35	Z35	X36	Y36	Z36	X37	Y37	Z37	X38	Y38	Z38	X39	Y39	Z39	X40	Y40	Z40	X41	Y41	Z41	X42	Y42	Z42	X43	Y43	Z43	
301	1.5050	-0.345557	1.497055	-0.594498	-0.240505	1.448346	-0.782065	-0.224488	1.447524	-0.397929	-0.207502	1.412384	-0.591807	-0.172121	0.985626	-0.449820	-0.173928	0.983844	-0.707208	-0.262147	1.037481	-0.411544	-0.263965	1.023541	-0.741813	-0.359623	1.024930	-0.525882	-0.360145	1.019401	-0.618826	-0.363414	1.019044	-0.574628	-0.268703	0.752049	-0.378425	-0.259702	0.692176	-0.380138	-0.195049	0.698383	-0.379440	-0.195825	0.759801	-0.377488	-0.252094	0.474223	-0.393592	-0.246481	0.448875	-0.511909	-0.302064	0.292731	-0.365113	-0.318613	0.252413	-0.370224	-0.252225	0.276340	-0.375270	-0.259644	0.237478	-0.382441	-0.334947	0.077403	-0.381966	-0.303672	0.078601	-0.465193	-0.387427	0.049425	-0.429663	-0.228342	0.037025	-0.339419	-0.176339	0.045394	-0.406827	-0.147742	0.036217	-0.403035	-0.290079	0.753931	-0.756487	-0.287725	0.692435	-0.755955	-0.223771	0.688512	-0.767022	-0.218847	0.748216	-0.769425	-0.275619	0.486906	-0.745963	-0.274475	0.472650	-0.629721	-0.338702	0.252028	-0.750417	-0.343127	0.213385	-0.742613	-0.282205	0.210062	-0.737429	-0.284240	0.250872	-0.750856	-0.335207	0.075590	-0.728227	-0.311048	0.083444	-0.646324	-0.386149	0.045478	-0.676252	-0.220226	0.030612	-0.766701	-0.171845	0.043151	-0.687083	-0.143953	0.034975	-0.695702	
302	1.5100	-0.345491	1.497065	-0.594499	-0.240428	1.448334	-0.782070	-0.224420	1.447543	-0.397939	-0.207449	1.412383	-0.591822	-0.172098	0.985624	-0.449828	-0.173892	0.983843	-0.707215	-0.262119	1.037483	-0.411558	-0.263935	1.023540	-0.741822	-0.359591	1.024938	-0.525893	-0.360111	1.019411	-0.618832	-0.363378	1.019049	-0.574640	-0.268694	0.752056	-0.378436	-0.259699	0.692191	-0.380151	-0.195048	0.698380	-0.379452	-0.195828	0.759801	-0.377497	-0.252114	0.474232	-0.393597	-0.246494	0.448883	-0.511915	-0.302079	0.292732	-0.365119	-0.318606	0.252461	-0.370229	-0.252231	0.276347	-0.375273	-0.259659	0.237496	-0.382439	-0.334952	0.077405	-0.381971	-0.303670	0.078603	-0.465192	-0.387425	0.049446	-0.429684	-0.228343	0.037026	-0.339417	-0.176337	0.045394	-0.406829	-0.147739	0.036213	-0.403034	-0.290048	0.753929	-0.756492	-0.287698	0.692431	-0.755959	-0.223738	0.688510	-0.767025	-0.218821	0.748214	-0.769429	-0.275590	0.486906	-0.745962	-0.274441	0.472659	-0.629721	-0.338681	0.252032	-0.750458	-0.343107	0.213390	-0.742613	-0.282194	0.210062	-0.737427	-0.284225	0.250872	-0.750853	-0.335205	0.075596	-0.728222	-0.311044	0.083444	-0.646323	-0.386149	0.045484	-0.676248	-0.220226	0.030612	-0.766700	-0.171841	0.043159	-0.687087	-0.143952	0.034982	-0.695708	
303	1.5150	-0.345424	1.497076	-0.594504	-0.240349	1.448324	-0.782076	-0.224358	1.447569	-0.397951	-0.207398	1.412383	-0.591837	-0.172067	0.985619	-0.449836	-0.173856	0.983841	-0.707222	-0.262091	1.037483	-0.411571	-0.263903	1.023539	-0.741832	-0.359560	1.024949	-0.525907	-0.360079	1.019420	-0.618841	-0.363341	1.019054	-0.574653	-0.268686	0.752064	-0.378448	-0.259700	0.692202	-0.380161	-0.195048	0.698390	-0.379465	-0.195819	0.759809	-0.377507	-0.252136	0.474239	-0.393601	-0.246507	0.448890	-0.511922	-0.302096	0.292733	-0.365127	-0.318607	0.252479	-0.370232	-0.252238	0.276355	-0.375276	-0.259673	0.237509	-0.382438	-0.334956	0.077406	-0.381976	-0.303669	0.078604	-0.465193	-0.387422	0.049466	-0.429706	-0.228343	0.037028	-0.339413	-0.176335	0.045393	-0.406831	-0.147738	0.036211	-0.403034	-0.290018	0.753926	-0.756496	-0.287672	0.692423	-0.755965	-0.223705	0.688507	-0.767029	-0.218794	0.748211	-0.769434	-0.275562	0.486905	-0.745960	-0.274411	0.472667	-0.629723	-0.338662	0.252035	-0.750490	-0.343089	0.213393	-0.742612	-0.282182	0.210063	-0.737426	-0.284211	0.250871	-0.750850	-0.335203	0.075601	-0.728218	-0.311041	0.083443	-0.646321	-0.386147	0.045489	-0.676244	-0.220226	0.030613	-0.766699	-0.171841	0.043158	-0.687083	-0.143951	0.034981	-0.695708	
304	1.5200	-0.345356	1.497091	-0.594508	-0.240264	1.448316	-0.782079	-0.224297	1.447580	-0.397961	-0.207347	1.412384	-0.591850	-0.172039	0.985612	-0.449847	-0.173821	0.983840	-0.707229	-0.262061	1.037483	-0.411585	-0.263871	1.023538	-0.741843	-0.359534	1.024971	-0.525932	-0.360047	1.019428	-0.618850	-0.363305	1.019058	-0.574665	-0.268679	0.752070	-0.378459	-0.259700	0.692211	-0.380169	-0.195039	0.698396	-0.379475	-0.195794	0.759819	-0.377517	-0.252158	0.474245	-0.393605	-0.246518	0.448897	-0.511931	-0.302112	0.292735	-0.365136	-0.318602	0.252503	-0.370233	-0.252245	0.276364	-0.375278	-0.259680	0.237518	-0.382437	-0.334941	0.077394	-0.381967	-0.303667	0.078606	-0.465192	-0.387421	0.049453	-0.429695	-0.228345	0.037032	-0.339410	-0.176333	0.045391	-0.406834	-0.147737	0.036209	-0.403036	-0.289989	0.753924	-0.756501	-0.287648	0.692411	-0.755971	-0.223674	0.688505	-0.767033	-0.218767	0.748209	-0.769441	-0.275534	0.486905	-0.745959	-0.274381	0.472677	-0.629723	-0.338645	0.252037	-0.750513	-0.343074	0.213397	-0.742611	-0.282169	0.210064	-0.737425	-0.284198	0.250870	-0.750848	-0.335201	0.075604	-0.728213	-0.311037	0.083442	-0.646321	-0.386145	0.045494	-0.676240	-0.220225	0.030614	-0.766697	-0.171839	0.043157	-0.687081	-0.143950	0.034980	-0.695708	
305	1.5250	-0.345286	1.497107	-0.594515	-0.240175	1.448310	-0.782082	-0.224240	1.447594	-0.397972	-0.207291	1.412387	-0.591860	-0.172012	0.985603	-0.449860	-0.173785	0.983838	-0.707238	-0.262033	1.037483	-0.411600	-0.263838	1.023538	-0.741854	-0.359509	1.024992	-0.525959	-0.360013	1.019434	-0.618859	-0.363268	1.019061	-0.574677	-0.268670	0.752075	-0.378469	-0.259703	0.692219	-0.380175	-0.195030	0.698401	-0.379485	-0.195768	0.759831	-0.377527	-0.252176	0.474250	-0.393610	-0.246528	0.448904	-0.511941	-0.302129	0.292736	-0.365146	-0.318601	0.252518	-0.370234	-0.252253	0.276370	-0.375281	-0.259686	0.237524	-0.382437	-0.334909	0.077369	-0.381942	-0.303664	0.078607	-0.465194	-0.387420	0.049438	-0.429682	-0.228346	0.037035	-0.339405	-0.176330	0.045390	-0.406836	-0.147736	0.036207	-0.403036	-0.289961	0.753921	-0.756505	-0.287627	0.692394	-0.755979	-0.223645	0.688503	-0.767038	-0.218741	0.748206	-0.769446	-0.275508	0.486904	-0.745960	-0.274358	0.472686	-0.629727	-0.338630	0.252038	-0.750528	-0.343058	0.213400	-0.742611	-0.282158	0.210063	-0.737424	-0.284185	0.250869	-0.750847	-0.335198	0.075607	-0.728208	-0.311031	0.083442	-0.646319	-0.386143	0.045497	-0.676236	-0.220225	0.030614	-0.766696	-0.171838	0.043156	-0.687081	-0.143949	0.034979	-0.695709	
306	1.5300	-0.345216	1.497121	-0.594525	-0.240086	1.448303	-0.782085	-0.224187	1.447595	-0.397982	-0.207233	1.412390	-0.591869	-0.171987	0.985591	-0.449872	-0.173751	0.983836	-0.707246	-0.262003	1.037484	-0.411615	-0.263803	1.023539	-0.741864	-0.359476	1.024999	-0.525974	-0.359977	1.019439	-0.618870	-0.363233	1.019064	-0.574689	-0.268657	0.752079	-0.378478	-0.259704	0.692224	-0.380180	-0.195036	0.698411	-0.379495	-0.195746	0.759832	-0.377533	-0.252194	0.474255	-0.393615	-0.246538	0.448908	-0.511950	-0.302150	0.292736	-0.365158	-0.318622	0.252509	-0.370246	-0.252259	0.276375	-0.375283	-0.259690	0.237534	-0.382438	-0.334893	0.077358	-0.381932	-0.303660	0.078610	-0.465197	-0.387419	0.049421	-0.429669	-0.228347	0.037033	-0.339404	-0.176327	0.045389	-0.406839	-0.147734	0.036207	-0.403037	-0.289934	0.753918	-0.756509	-0.287604	0.692380	-0.755986	-0.223617	0.688500	-0.767043	-0.218715	0.748203	-0.769451	-0.275483	0.486903	-0.745961	-0.274336	0.472693	-0.629729	-0.338617	0.252038	-0.750534	-0.343045	0.213404	-0.742610	-0.282148	0.210062	-0.737422	-0.284174	0.250866	-0.750845	-0.335196	0.075610	-0.728204	-0.311027	0.083443	-0.646317	-0.386141	0.045499	-0.676232	-0.220224	0.030615	-0.766697	-0.171838	0.043147	-0.687073	-0.143947	0.034970	-0.695702	
307	1.5350	-0.345147	1.497135	-0.594538	-0.239995	1.448296	-0.782084	-0.224132	1.447585	-0.397992	-0.207173	1.412393	-0.591878	-0.171959	0.985585	-0.449886	-0.173717	0.983834	-0.707255	-0.261972	1.037487	-0.411628	-0.263769	1.023540	-0.741874	-0.359446	1.025005	-0.525989	-0.359942	1.019440	-0.618882	-0.363202	1.019069	-0.574705	-0.268651	0.752084	-0.378484	-0.259708	0.692228	-0.380184	-0.195026	0.698416	-0.379501	-0.195724	0.759831	-0.377539	-0.252212	0.474258	-0.393621	-0.246549	0.448913	-0.511958	-0.302166	0.292736	-0.365167	-0.318639	0.252491	-0.370255	-0.252267	0.276378	-0.375284	-0.259696	0.237545	-0.382441	-0.334878	0.077349	-0.381922	-0.303658	0.078612	-0.465201	-0.387418	0.049405	-0.429657	-0.228348	0.037029	-0.339406	-0.176326	0.045388	-0.406839	-0.147734	0.036207	-0.403038	-0.289909	0.753914	-0.756512	-0.287581	0.692365	-0.755993	-0.223591	0.688497	-0.767048	-0.218690	0.748199	-0.769455	-0.275459	0.486901	-0.745962	-0.274315	0.472693	-0.629734	-0.338606	0.252036	-0.750535	-0.343034	0.213403	-0.742608	-0.282139	0.210060	-0.737420	-0.284164	0.250862	-0.750844	-0.335194	0.075614	-0.728201	-0.311023	0.083444	-0.646314	-0.386140	0.045500	-0.676230	-0.220223	0.030615	-0.766696	-0.171845	0.043118	-0.687050	-0.143947	0.034945	-0.695679	
308	1.5400	-0.345078	1.497149	-0.594551	-0.239902	1.448289	-0.782081	-0.224074	1.447573	-0.398001	-0.207105	1.412398	-0.591882	-0.171933	0.985577	-0.449900	-0.173684	0.983831	-0.707264	-0.261941	1.037494	-0.411643	-0.263736	1.023542	-0.741885	-0.359416	1.025004	-0.526000	-0.359906	1.019442	-0.618896	-0.363173	1.019077	-0.574722	-0.268645	0.752089	-0.378490	-0.259706	0.692234	-0.380188	-0.195004	0.698394	-0.379503	-0.195708	0.759826	-0.377543	-0.252229	0.474261	-0.393627	-0.246559	0.448918	-0.511967	-0.302182	0.292734	-0.365176	-0.318647	0.252490	-0.370260	-0.252275	0.276381	-0.375286	-0.259701	0.237561	-0.382445	-0.334879	0.077355	-0.381927	-0.303656	0.078615	-0.465204	-0.387419	0.049389	-0.429644	-0.228350	0.037024	-0.339408	-0.176326	0.045388	-0.406839	-0.147732	0.036208	-0.403037	-0.289885	0.753911	-0.756516	-0.287558	0.692355	-0.756000	-0.223568	0.688495	-0.767053	-0.218666	0.748194	-0.769459	-0.275435	0.486901	-0.745964	-0.274288	0.472694	-0.629739	-0.338595	0.252036	-0.750536	-0.343023	0.213404	-0.742607	-0.282133	0.210058	-0.737418	-0.284154	0.250857	-0.750844	-0.335191	0.075617	-0.728199	-0.311019	0.083446	-0.646311	-0.386141	0.045501	-0.676229	-0.220223	0.030615	-0.766696	-0.171845	0.043109	-0.687044	-0.143947	0.034938	-0.695671	
